<svg version="1" xmlns="http://www.w3.org/2000/svg" width="468" height="468" viewBox="0 0 351.000000 351.000000"><path d="M76.2 4.7c-.4.1-6.5.4-13.7.6-10.4.4-14.4.9-20 2.9-21.7 7.6-37.2 26-41.3 49.3-.7 4-.7 228.3 0 236.1.3 3.4 1.1 7.1 1.7 8.3.7 1.2.9 2.5.6 3-.3.5 0 1.1.5 1.3.6.2 1.2 1 1.4 1.8.5 2.4 1.9 5.5 2.8 6.1.5.3 1 1.5 1.1 2.7 0 1.2.3 1.9.5 1.7.7-.7 2.9 1.9 3.6 4.3.4 1.2 1.4 2.2 2.2 2.2 1.3 0 1.8 1.2 1.5 3.3 0 .4.5.7 1.1.7 2.3.1 5.1 2.9 5.3 5.2.2 2.2 2.5 3.9 2.5 1.8 0-.6-.5-.8-1.2-.4s-.8.3-.4-.4c.5-.8 1.3-.9 2.5-.3 3 1.7 4.1 3.5 2.9 5.1-.8 1.3-.9 1.3-.5 0 .3-1-.2-1.6-1.4-1.6-1.7 0-1.7.2-.2 1.8 1.1 1.2 2 1.5 2.8.8 2.1-1.7 8.1.2 6.9 2.2-.5.7-.1.9.9.5.9-.3 1.9-.2 2.3.4.4.6 1.2.6 2.2-.3 1.4-1 1.5-1 .5.2-.7.8-1.3 1.7-1.3 2 0 .9 6.3.6 7.8-.3.7-.5 1.2-.4 1.2.2 0 .7 39.6 1 123.5 1 96.5 0 123.5-.2 123.5-1.2 0-.7.3-.8.8-.2.4.5 1.7 1.1 3 1.1 1.7.1 2.2-.3 1.8-1.5-.5-1.2-.3-1.2.8.2 1.2 1.5 1.8 1.6 3.5.8 2.6-1.4 3.4-1.4 2.5.1-.4.7-.3.8.5.4.6-.4.9-1.3.5-1.9-.3-.7.1-.4.9.5 1.3 1.6 1.5 1.6 2.6-1 1-2.4 1-2.5-.3-.9-1.2 1.6-1.4 1.6-2 .2-.3-.9-.2-1.4.3-1.1 1.2.8 3.3-1.9 2.3-3-.4-.4.1-.2 1.1.5 1.1.9 1.7 1 1.7.2 0-.6.7-1.1 1.5-1.1s1.4-.6 1.2-1.3c-.1-.6.5-1.2 1.4-1.2.9 0 2.9-1.5 4.4-3.3 1.5-1.7 3-3 3.4-2.8.4.3 1.3.1 2.1-.5 1-.5 1-.9.3-.9s.1-1.4 1.7-3.1c1.5-1.7 3.3-2.9 3.8-2.5.6.4.8-.2.4-1.6-.3-1.4-.2-1.9.6-1.4.7.4 1.2.1 1.2-.8s.5-1.6 1.1-1.6c.5 0 .8-.4.4-.9-.3-.5.2-1.6 1-2.5.9-.8 1.6-1.8 1.6-2 .3-2.6 1.3-4.5 2.2-3.9.5.3.7.1.3-.5-.3-.6-.1-2.3.5-3.9 1-2.4 1.8-6.7 2.1-11.1.1-.6.4-1.2.7-1.2.7 0 .5-219.3-.3-230.5-1.3-20.7-14.2-40-33.1-49.7-8.9-4.6-12.5-5.6-22-6.4-5.4-.5-216.4-1.2-218.3-.7z"/><path d="M335.5 325.1c-.4.6-.5 1.2-.2 1.5.2.3.7-.2 1-1.1.7-1.7.1-2-.8-.4zM18.1 330.3c.2.1 1.5 1.1 2.9 2.2l2.5 2-1.9-2.3c-1.1-1.2-2.4-2.2-2.9-2.2-.6 0-.8.1-.6.3zM329 332c0 .5.5 1 1.1 1 .5 0 .7-.5.4-1-.3-.6-.8-1-1.1-1-.2 0-.4.4-.4 1zM326.9 333.2c0 .2-.2 1.1-.4 2.1-.3 1.5-.1 1.6 1.1.6.7-.6 1.1-1.5.8-2-.5-.9-1.3-1.2-1.5-.7zM19.4 338.4c.1.8.5 1.8.8 2.2.4.3.5-.1.4-1-.1-.8-.5-1.8-.8-2.2-.4-.3-.5.1-.4 1zM321.1 337.8c.3 2-.2 3.3-1 2.7-.6-.3-1.5.3-2.1 1.4-.9 1.7-.8 2 .6 1.4 1.3-.5 1.5-.3.9.7-.5.9-.4 1.1.4.6.6-.4.9-1.2.6-1.7-.4-.5.1-1.2.9-1.5.9-.3 1.3-1 1-1.5-.8-1.4.8-1.1 2.6.6 1.4 1.3 1.6 1.2 1.6-.4 0-1.2-.5-1.7-1.5-1.3-.8.3-1.2.1-.8-.4.3-.6-.3-1-1.3-1.1-1.1-.1-1.9.1-1.9.5zM30.5 342.6c-1.2 1-1.4 1.4-.5 1.2.8-.3 2.6.3 4.1 1.3 2.5 1.7 2.5 1.7 2.5-.6 0-1.4-.6-2.7-1.4-3-1-.4-1.2 0-.8 1.1.4 1 .2 1.4-.6 1.1-.7-.2-1.2-1-1-1.6.3-1.4.1-1.4-2.3.5zM25 344.1c0 .5.4.8.9.4.5-.3 1.2-.1 1.6.5.3.5 1.1 1 1.8 1 .6 0 .2-.7-.9-1.5-2.3-1.7-3.4-1.9-3.4-.4zM38.6 344.9c-.4.5-.2 1.2.3 1.5.5.4 1.2.2 1.5-.3.4-.5.2-1.2-.3-1.5-.5-.4-1.2-.2-1.5.3zM315.5 346c-.3.6.1.7.9.4 1.8-.7 2.1-1.4.7-1.4-.6 0-1.3.4-1.6 1z"/></svg>